# xmcd
#
# Track frame offsets:
#	150
#	9808
#	22745
#	34971
#	45941
#	59506
#	73348
#	84320
#	97485
#	115990
#	126779
#	138785
#	149684
#
# Disc length: 2220 seconds
# Revision: 1
# Processed by: cddbd v1.5.2PL0 Copyright (c) Steve Scherf et al.
# Submitted via: dBpowerAMP V12.0
#
DISCID=b208aa0d
DTITLE=Various Artist - God's Love Is So Divine
DYEAR=2018
DGENRE=Bluegrass
TTITLE0=The Po' Ramblin' Boys - I'll Be A Friend To Jesus
TTITLE1=The Po' Ramblin' Boys - I Am Weary, Let Me Rest
TTITLE2=The Po' Ramblin' Boys - Over In The Gloryland
TTITLE3=The Po' Ramblin' Boys - The Way Is Narrow
TTITLE4=The Po' Ramblin' Boys feat. R.C. Fields - The Voice of My Savior
TTITLE5=The Po' Ramblin' Boys - I Like To Hear 'Em Preach It
TTITLE6=The Po' Ramblin' Boys - Angel Band
TTITLE7=The Po' Ramblin' Boys feat. Slim and Doris Highfill - Let's All Go Down To The River
TTITLE8=The Po' Ramblin' Boys - Just As The Sun Went Down
TTITLE9=The Po' Ramblin' Boys - Jesus Is The One
TTITLE10=The Po' Ramblin' Boys - When The Savior Reached Down For Me
TTITLE11=The Po' Ramblin' Boys - God's Love Is So Divine
TTITLE12=The Po' Ramblin' Boys - For Me, It's Hello
EXTD=
EXTT0=
EXTT1=
EXTT2=
EXTT3=
EXTT4=
EXTT5=
EXTT6=
EXTT7=
EXTT8=
EXTT9=
EXTT10=
EXTT11=
EXTT12=
PLAYORDER=
